<svg width="547" height="301" viewBox="0 0 547 301" xmlns="http://www.w3.org/2000/svg">
	<path d="M394.1 271C394.1 271 430 279.6 434.4 300.1C434.4 300.1 448.5 275.4 465.8 273.5C465.8 273.5 453 266.8 435.7 284.1C435.7 284.1 427.1 270 394.1 271Z" fill="#0D0D0D" />
	<path d="M266.9 119.8C266.9 119.8 292.8 126 296 140.8C296 140.8 306.2 123 318.7 121.6C318.7 121.6 309.4 116.7 297 129.2C296.9 129.3 290.7 119.2 266.9 119.8Z" fill="#0D0D0D" />
	<path d="M494.5 216.5C494.5 216.5 520.4 222.7 523.6 237.5C523.6 237.5 533.8 219.7 546.3 218.3C546.3 218.3 537 213.4 524.6 225.9C524.6 226 518.4 215.8 494.5 216.5Z" fill="#0D0D0D" />
	<path d="M59.6 0.400027C59.6 0.400027 95.5 9.00003 99.9 29.5C99.9 29.5 114 4.80003 131.3 2.90003C131.3 2.90003 118.5 -3.79997 101.2 13.5C101.2 13.5 92.5 -0.599973 59.6 0.400027Z" fill="#0D0D0D" />
	<path d="M0.699951 98.8C0.699951 98.8 26.5999 105 29.7999 119.8C29.7999 119.8 40 102 52.5 100.6C52.5 100.6 43.1999 95.7001 30.7999 108.2C30.6999 108.2 24.5 98.1 0.699951 98.8Z" fill="#0D0D0D" />
</svg>