<svg width="846" height="645" viewBox="0 0 846 645" xmlns="http://www.w3.org/2000/svg">
	<path d="M692.9 615.8C692.9 615.8 728.8 624.4 733.2 644.9C733.2 644.9 747.3 620.2 764.6 618.3C764.6 618.3 751.8 611.6 734.5 628.9C734.5 628.9 725.9 614.8 692.9 615.8Z" fill="#0D0D0D" />
	<path d="M565.7 464.6C565.7 464.6 591.6 470.8 594.8 485.6C594.8 485.6 605 467.8 617.5 466.4C617.5 466.4 608.2 461.5 595.8 474C595.7 474.1 589.5 463.9 565.7 464.6Z" fill="#0D0D0D" />
	<path d="M609 194.7C609 194.7 631.9 200.2 634.8 213.3C634.8 213.3 643.8 197.6 654.8 196.3C654.8 196.3 646.6 192 635.6 203C635.6 203.1 630.1 194.1 609 194.7Z" fill="#0D0D0D" />
	<path d="M184.6 108.2C184.6 108.2 207.5 113.7 210.4 126.8C210.4 126.8 219.4 111.1 230.4 109.8C230.4 109.8 222.2 105.5 211.2 116.5C211.2 116.6 205.7 107.6 184.6 108.2Z" fill="#0D0D0D" />
	<path d="M335.5 1.00004C335.5 1.00004 358.4 6.50004 361.3 19.6C361.3 19.6 370.3 3.90004 381.3 2.60004C381.3 2.60004 373.1 -1.69998 362.1 9.30002C362.1 9.40003 356.5 0.400037 335.5 1.00004Z" fill="#0D0D0D" />
	<path d="M0.200073 484.5C0.200073 484.5 26.1001 490.7 29.3001 505.5C29.3001 505.5 39.5001 487.7 52.0001 486.3C52.0001 486.3 42.7001 481.4 30.3001 493.9C30.3001 494 24.1001 483.8 0.200073 484.5Z" fill="#0D0D0D" />
	<path d="M793.3 561.3C793.3 561.3 819.2 567.5 822.4 582.3C822.4 582.3 832.6 564.5 845.1 563.1C845.1 563.1 835.8 558.2 823.4 570.7C823.4 570.8 817.2 560.6 793.3 561.3Z" fill="#0D0D0D" />
	<path d="M358.4 345.1C358.4 345.1 394.3 353.7 398.7 374.2C398.7 374.2 412.8 349.5 430.1 347.6C430.1 347.6 417.3 340.9 400 358.2C400 358.3 391.4 344.2 358.4 345.1Z" fill="#0D0D0D" />
	<path d="M618.9 546.7C618.9 546.7 654.8 555.3 659.2 575.8C659.2 575.8 673.3 551.1 690.6 549.2C690.6 549.2 677.8 542.5 660.5 559.8C660.6 559.8 651.9 545.7 618.9 546.7Z" fill="#0D0D0D" />
	<path d="M299.5 443.5C299.5 443.5 325.4 449.7 328.6 464.5C328.6 464.5 338.8 446.7 351.3 445.3C351.3 445.3 342 440.4 329.6 452.9C329.5 453 323.3 442.8 299.5 443.5Z" fill="#0D0D0D" />
</svg>